<svg role="img"
  xmlns="http://www.w3.org/2000/svg" viewBox="0 0 1200 266.8239" aria-labelledby="harmonious-title">
  <title id="harmonious-title">Harmonious</title>
  <g>
    <path d="M75.0182,128.5213c3.2713-.4978,5.1487-.7467,5.6465-.7467a30.0994,30.0994,0,0,1,24.065,11.2929q9.0564,10.6884,9.06,25.9851-.1494,24.3636-24.1148,35.7917l6.1443,31.3684a47.627,47.627,0,0,1,.2916,6.8341q0,12.32-8.0217,20.0541-8.0217,7.723-20.9431,7.723a26.7607,26.7607,0,0,1-16.9323-5.9451,21.9141,21.9141,0,0,1-8.619-15.446,18.4647,18.4647,0,0,1,3.4135-12.9285q4.16-5.9416,10.5533-6.6848a12.6558,12.6558,0,0,1,10.7667,3.79,15.5835,15.5835,0,0,1,4.978,10.7738,12.8543,12.8543,0,0,1-6.0945,12.0325q-5.0456,3.5628-9.5008,2.6739.4372,3.4134,5.49,5.4971a19.0665,19.0665,0,0,0,8.619,1.1876q20.6516-2.24,21.2418-22.8987A54.8056,54.8056,0,0,0,89.86,227.4338l-5.0989-24.6552a45.5075,45.5075,0,0,1-14.429,2.5459q-20.5342,0-35.4006-16.7118a57.0049,57.0049,0,0,1-14.877-39.1483q0-18.2729,13.6681-37.2851,5.9415-8.1711,26.8882-30.01A133.4232,133.4232,0,0,1,56.301,48.0059,79.3659,79.3659,0,0,1,61.35,20.9684Q67.441,3.73,77.3934.1675,82.151-1.6139,88.6863,15.5424q6.5389,17.1633,6.2367,30.0812-.5867,32.236-24.9539,57.0477Zm-1.1947,18.2692a22.4783,22.4783,0,0,0-16.1856,21.2418q.1494,10.6991,12.3312,16.1926a2.5052,2.5052,0,0,1,.889,1.6357c0,1.2871-.69,1.8347-2.0766,1.6356A27.2325,27.2325,0,0,1,54.516,176.8006a29.3627,29.3627,0,0,1-5.3477-17.6789q.1492-9.0671,6.322-17.6079,6.1656-8.5336,14.493-11.6627l-4.5868-23.4747q-16.0647,14.56-23.0481,24.2214Q31.34,146.1932,31.3471,162.0871q0,17.3874,12.7792,28.083,12.1925,10.251,29.427,9.5079a51.21,51.21,0,0,0,10.2546-1.6427ZM88.537,32.5529a11.5082,11.5082,0,0,0-2.3752-6.7559,7.1237,7.1237,0,0,0-5.9451-2.9014q-8.6191,1.6426-13.6682,14.557a59.9267,59.9267,0,0,0-4.153,21.2489q-.1494,6.8269,2.3752,19.3075A76.4366,76.4366,0,0,0,81.5536,57.9548Q88.9887,45.037,88.537,32.5529Zm.0925,163.84a29.2547,29.2547,0,0,0,11.2929-10.916,24.8827,24.8827,0,0,0,3.62-14.9268,26.5555,26.5555,0,0,0-7.8012-17.6719,22.032,22.032,0,0,0-17.1528-6.5353Z" fill="#999"/>
    <path d="M1168.6529,115.0025a5.6431,5.6431,0,1,1-11.2858,0,5.5324,5.5324,0,0,1,1.6285-3.94,5.566,5.566,0,0,1,8.0217,0A5.51,5.51,0,0,1,1168.6529,115.0025Zm0,36.0975a5.51,5.51,0,0,1-1.6356,3.94,5.566,5.566,0,0,1-8.0217,0,5.5324,5.5324,0,0,1-1.6285-3.94,5.643,5.643,0,1,1,11.2858,0Zm9.06,54.2245h-1.1877V60.6287h1.1877Zm22.2871,0h-10.8449V60.6287H1200Z" fill="#999"/>
    <polygon points="1200 63.153 1200 60.33 0 60.33 0 205.615 1200 205.616 1200 202.8 2.816 202.8 2.816 170.706 1200 170.706 1200 167.883 2.816 167.883 2.816 134.31 1200 134.31 1200 131.494 2.816 131.494 2.816 98.212 1200 98.212 1200 95.389 2.816 95.389 2.816 63.153 1200 63.153" fill="#999"/>
  </g>
  <g>
    <path d="M331.5266,133.4282v43.8347q0,8.5656.6116,11.2146,1.0134,4.4908,4.4873,4.4873,2.6454,0,10.6031-7.9505v5.7033q-11.4244,14.8914-21.2062,14.8842-11.0085,0-11.0084-14.8842-6.5283,4.8963-13.0566,9.9916a29.0931,29.0931,0,0,1-15.6949,4.8926q-10.1977,0-16.0077-6.7274-5.8137-6.731-5.81-17.1242,0-10.4006,9.38-18.5537,6.923-5.92,20.5946-11.6271,10.39-4.0749,20.5947-8.1568,0-14.262-2.4677-19.976-3.7015-8.5656-14.365-8.5692a15.5214,15.5214,0,0,0-9.444,2.8588,11.19,11.19,0,0,0-4.31,9.1737q0,14.4753-8.2635,14.4788-8.2563,0-8.2563-9.7924,0-6.9229,6.5283-13.4548,9.1737-9.3764,27.1158-9.38Q331.5266,108.7516,331.5266,133.4282ZM315.014,184.1965V149.3293q-16.5234,6.731-22.23,10.3968-11.83,7.5523-11.8263,17.743a18.0633,18.0633,0,0,0,4.082,11.62,12.7341,12.7341,0,0,0,10.3969,5.0989Q302.9779,194.188,315.014,184.1965Z" fill="#111"/>
    <path d="M379.6424,108.7516v19.5777q12.16-19.5742,23.3041-19.5777a14.1279,14.1279,0,0,1,8.9675,3.1645,9.7973,9.7973,0,0,1,4.0179,8.05,9.1484,9.1484,0,0,1-2.5459,6.4216,8.15,8.15,0,0,1-6.2153,2.7521c-2.3184,0-4.9638-1.1165-7.9577-3.3637q-4.48-3.36-6.5212-3.3637-5.7069,0-13.0494,15.254v38.2309q0,14.0272,2.041,17.6931,3.0509,5.28,14.8842,5.2838V202.8H349.0563v-3.9255q7.7442-.2027,10.9089-2.745,3.1574-2.5387,3.1574-10.88V135.6327q0-13.8353-7.1327-13.8317a19.3172,19.3172,0,0,0-6.9336,1.6356l-1.4294-3.47,27.5282-11.2147Z" fill="#111"/>
    <path d="M447.535,108.7516V128.123q9.9844-10.1977,14.0664-13.0494,8.5656-6.3149,17.7429-6.322a23.1358,23.1358,0,0,1,15.19,5.4971,20.6874,20.6874,0,0,1,7.6448,13.8743q8.3629-9.7816,13.8672-13.5756a30.2943,30.2943,0,0,1,17.9421-5.7958q12.2352,0,18.5536,9.5648,5.5042,8.3417,5.5043,21.1564V185.249q0,8.3417,3.47,11.1862,2.8482,2.24,10.596,2.4392V202.8H527.46v-3.9255q7.7444-.2027,10.9089-2.745,3.1575-2.5387,3.1646-10.88V144.9842q0-11.3818-2.041-16.2709-3.2641-7.723-13.0494-7.723-10.6032,0-23.6526,12.1961V185.249q0,8.3417,3.4633,11.1862,2.8587,2.24,10.6031,2.4392V202.8H472.2045v-3.9255q7.7443-.2027,10.9089-2.745,3.1574-2.5387,3.1645-10.88V144.9842q0-11.3818-2.0409-16.2709-3.2642-7.723-13.05-7.723-10.603,0-23.6525,12.1961V185.249q0,8.3417,3.4633,11.1862,2.8587,2.24,10.6031,2.4392V202.8H416.9489v-3.9255q7.7442-.2027,10.9088-2.745,3.1575-2.5387,3.1575-10.88V135.6327q0-13.8353-7.1327-13.8317a19.3172,19.3172,0,0,0-6.9336,1.6356l-1.4294-3.47,27.5282-11.2147Z" fill="#111"/>
    <path d="M618.2016,108.7516a40.7526,40.7526,0,0,1,31.2973,13.661A46.61,46.61,0,0,1,662.0364,155.04a54.7617,54.7617,0,0,1-10.6032,33.2316q-12.6405,17.3342-34.6609,17.3305-18.7635,0-31.1978-14.6779-11.6164-13.6539-11.62-32.8263,0-19.5741,12.0254-34.0494Q598.8337,108.7517,618.2016,108.7516Zm-3.47,6.9336a18.7364,18.7364,0,0,0-14.8842,6.9336q-7.3389,8.9711-7.339,26.71,0,17.5367,5.91,31.1977,7.9577,18.1448,23.041,18.1483,22.0275,0,22.024-35.0735,0-17.3234-5.91-30.5861Q629.8181,115.6924,614.7313,115.6852Z" fill="#111"/>
    <path d="M697.11,108.7516v19.1652q9.3764-10.1871,15.4958-14.2726a27.5125,27.5125,0,0,1,15.4957-4.8926q11.6271,0,17.7359,9.5648,5.3014,8.3417,5.3051,21.1564V185.249q0,8.3417,3.4632,11.1862,2.8588,2.24,10.6031,2.4392V202.8H720.5561v-3.9255q7.7444-.2027,10.9089-2.745,3.1575-2.5387,3.1646-10.88V143.1566q0-22.1663-14.4788-22.1663-10.4006,0-23.041,13.0139V185.249q0,8.3417,3.4633,11.1862,2.8587,2.24,10.6031,2.4392V202.8H666.5236v-3.9255q7.7444-.2027,10.9089-2.745,3.1575-2.5387,3.1575-10.88V135.6327q0-13.8353-7.1327-13.8317a19.3182,19.3182,0,0,0-6.9337,1.6356l-1.4293-3.47,27.5282-11.2147Z" fill="#111"/>
    <path d="M803.5462,108.7516V185.249q0,8.3417,3.4633,11.1862,2.8587,2.24,10.6031,2.4392V202.8H772.96v-3.9255q7.7442-.2027,10.9089-2.745,3.1573-2.5387,3.1574-10.88V135.6327q0-13.8353-7.1327-13.8317a19.3172,19.3172,0,0,0-6.9336,1.6356l-1.4294-3.47,27.5282-11.2147Zm-18.3545-38.43a10.09,10.09,0,1,1,2.9583,7.0332A9.6281,9.6281,0,0,1,785.1917,70.3215Z" fill="#111"/>
    <path d="M864.9177,108.7516a40.7529,40.7529,0,0,1,31.2973,13.661A46.61,46.61,0,0,1,908.7524,155.04a54.7622,54.7622,0,0,1-10.6031,33.2316q-12.6407,17.3342-34.661,17.3305-18.7635,0-31.1978-14.6779-11.6164-13.6539-11.62-32.8263,0-19.5741,12.0254-34.0494Q845.55,108.7517,864.9177,108.7516Zm-3.47,6.9336a18.7364,18.7364,0,0,0-14.8842,6.9336q-7.3389,8.9711-7.339,26.71,0,17.5367,5.91,31.1977,7.9577,18.1448,23.041,18.1483,22.0275,0,22.024-35.0735,0-17.3234-5.91-30.5861Q876.5341,115.6924,861.4473,115.6852Z" fill="#111"/>
    <path d="M993.5772,111.61v67.0819q0,13.8672,7.1328,13.86a19.2878,19.2878,0,0,0,6.9336-1.6285l1.4294,3.4632L981.5447,202.8h-4.4873V186.2375q-8.9711,9.7816-13.86,13.2485a28.1173,28.1173,0,0,1-17.1314,6.1158q-11.0085,0-17.1243-8.3346-6.1229-8.3417-6.1158-21.5688V131.3516q0-9.5577-2.553-12.6156-2.5494-3.0509-12.5374-3.257V111.61h31.6031v63.4124q0,18.3474,15.2967,18.3474,9.7816,0,22.4222-13.0139V131.3445q0-9.5577-2.5459-12.6085-2.5494-3.0509-12.5374-3.257V111.61Z" fill="#111"/>
    <path d="M1072.08,108.7516v31.1977h-3.6695q-5.6854-25.0783-24.3423-25.0819a17.2955,17.2955,0,0,0-10.3471,3.0579,10.8106,10.8106,0,0,0-5.07,9.38q0,8.9817,12.9925,16.1074,11.9792,6.3255,24.1717,12.644,12.9925,8.7684,12.9925,22.2232a24.1394,24.1394,0,0,1-9.4795,19.6773,33.6263,33.6263,0,0,1-21.7182,7.6447,67.6245,67.6245,0,0,1-18.3474-3.0579,28.5748,28.5748,0,0,0-5.0989-1.0169c-2.1419-.1619-3.23.0614-3.6695,1.2729h-3.67V171.5524h3.67a34.5856,34.5856,0,0,0,9.1737,19.5777,24.6344,24.6344,0,0,0,18.76,8.3559,17.2346,17.2346,0,0,0,11.1151-3.6695,12.3171,12.3171,0,0,0,4.5869-10.1906q0-9.7925-12.1819-16.9252-11.371-6.1229-22.9414-12.2387-12.1818-8.15-12.1818-20.3884,0-12.4272,7.9221-19.8764,7.9151-7.4455,20.31-7.4456,3.6481,0,11.5774,2.2472a35.3962,35.3962,0,0,0,7.51,1.6285c1.8987,0,3.3139-1.2872,4.2668-3.8757Z" fill="#111"/>
    <path d="M248.33,196.4356q-3.4668-2.848-3.4633-11.1862V139.4732q0-12.8218-5.3051-21.1564-6.1122-9.5577-17.7358-9.5648a27.5131,27.5131,0,0,0-15.4958,4.8926q-6.1228,4.0856-15.4957,14.2726V63.1536h-4.4873L158.819,74.3683l1.4294,3.47a19.316,19.316,0,0,1,6.9336-1.6356q7.1364,0,7.1328,13.8316v95.2q0,8.3525-3.1575,10.8947-3.1681,2.5388-10.9089,2.745V202.8h44.6525v-3.9255q-7.7442-.2027-10.6031-2.4392-3.4668-2.848-3.4632-11.1862V134.0046q12.6405-13.014,23.0409-13.0139,14.4753,0,14.4789,22.1662v42.0925q0,8.3416-3.1646,10.88-3.1575,2.5388-10.9089,2.745V202.8h44.6525v-3.9255Q251.1891,198.6721,248.33,196.4356Z" fill="#111"/>
  </g>
</svg>
